<svg xmlns="http://www.w3.org/2000/svg" viewBox="0 0 256 256" role="img" aria-label="TrendRadar logo">
  <defs>
    <linearGradient id="tr-cyan" x1="0" y1="0" x2="1" y2="1">
      <stop offset="0%" stop-color="#73e6ff"/>
      <stop offset="100%" stop-color="#8ff4c5"/>
    </linearGradient>
    <linearGradient id="tr-blue" x1="0" y1="1" x2="1" y2="0">
      <stop offset="0%" stop-color="#59d6ff"/>
      <stop offset="100%" stop-color="#8ef3d3"/>
    </linearGradient>
  </defs>
  <rect width="256" height="256" rx="40" fill="#11161f"/>
  <g fill="none" stroke="url(#tr-blue)" stroke-width="14" stroke-linecap="square">
    <path d="M44 122a84 84 0 0 1 84-84"/>
    <path d="M44 122a84 84 0 0 0 84 84"/>
    <path d="M128 206a84 84 0 0 0 78-53"/>
    <path d="M76 122a52 52 0 0 1 52-52"/>
    <path d="M76 122a52 52 0 0 0 52 52"/>
    <path d="M128 174a52 52 0 0 0 48-32"/>
    <path d="M104 122a24 24 0 0 1 24-24"/>
    <path d="M104 122a24 24 0 0 0 24 24"/>
  </g>
  <path d="M46 154l46-46 25 25 71-71" fill="none" stroke="url(#tr-cyan)" stroke-width="15" stroke-linecap="round" stroke-linejoin="round"/>
  <path d="M184 43l28 8-8 28" fill="none" stroke="url(#tr-cyan)" stroke-width="15" stroke-linecap="round" stroke-linejoin="round"/>
  <circle cx="128" cy="128" r="10" fill="#f0a34a"/>
</svg>
